# xmcd
#
# Track frame offsets:
#	150
#	14536
#	30354
#	47073
#	64778
#	78948
#	96477
#	113079
#	123854
#	145421
#	170809
#	185158
#	198453
#	214510
#	235433
#	252838
#	277119
#	301961
#	325653
#
# Disc length: 4650 seconds
#
# Revision: 1
# Processed by: cddbd v1.4PL0 Copyright (c) Steve Scherf et al.
# Submitted via: audiograbber 1.82.01
#
DISCID=15122813
DTITLE=Lucio Battisti - Collection
DYEAR=1900
DGENRE=
TTITLE0=Un'avventura
TTITLE1=29 Settembre
TTITLE2=Uno in più
TTITLE3=Non è Francesca
TTITLE4=Balla Linda
TTITLE5=Io vivrò (senza te)
TTITLE6=Mi ritorni in mente
TTITLE7=Nel cuore e nell'anima
TTITLE8=Emozioni
TTITLE9=Il tempo di morire
TTITLE10=Fiori rosa, fiori di pesco
TTITLE11=Dieci ragazze
TTITLE12=Acqua azzurra, acqua chiara
TTITLE13=Anna
TTITLE14=Pensieri e parole
TTITLE15=La canzone del sole
TTITLE16=I giardini di marzo
TTITLE17=Una donna per amico 
TTITLE18=Il mio canto libero
EXTD=
EXTT0=
EXTT1=
EXTT2=
EXTT3=
EXTT4=
EXTT5=
EXTT6=
EXTT7=
EXTT8=
EXTT9=
EXTT10=
EXTT11=
EXTT12=
EXTT13=
EXTT14=
EXTT15=
EXTT16=
EXTT17=
EXTT18=
PLAYORDER=
